<svg width="20" height="21" viewBox="0 0 20 21" fill="none" xmlns="http://www.w3.org/2000/svg">
<path fill-rule="evenodd" clip-rule="evenodd" d="M4.37012 5.80566C4.9224 5.80566 5.37012 5.35795 5.37012 4.80566C5.37012 4.25338 4.9224 3.80566 4.37012 3.80566C3.81783 3.80566 3.37012 4.25338 3.37012 4.80566C3.37012 5.35795 3.81783 5.80566 4.37012 5.80566ZM14.2121 9.60171C13.452 9.09497 12.4476 9.15562 11.754 9.75015L10.1201 11.1506V17.3057H8.62012V10.8057V7.80566H10.1201V9.175L10.7778 8.61126C11.9817 7.57939 13.7249 7.47413 15.0442 8.35364C16.0283 9.00971 16.6201 10.1126 16.6201 11.2965V11.3071V11.3178V11.3284V11.3391V11.3499V11.3606V11.3714V11.3822V11.393V11.4039V11.4148V11.4257V11.4366V11.4476V11.4585V11.4695V11.4806V11.4916V11.5027V11.5138V11.5249V11.5361V11.5473V11.5585V11.5697V11.5809V11.5922V11.6035V11.6148V11.6261V11.6375V11.6489V11.6603V11.6717V11.6831V11.6946V11.7061V11.7176V11.7291V11.7407V11.7523V11.7639V11.7755V11.7871V11.7988V11.8105V11.8222V11.8339V11.8456V11.8574V11.8692V11.881V11.8928V11.9046V11.9165V11.9284V11.9403V11.9522V11.9641V11.9761V11.988V12V12.012V12.0241V12.0361V12.0482V12.0603V12.0724V12.0845V12.0966V12.1088V12.1209V12.1331V12.1453V12.1576V12.1698V12.1821V12.1943V12.2066V12.2189V12.2312V12.2436V12.2559V12.2683V12.2807V12.2931V12.3055V12.3179V12.3304V12.3428V12.3553V12.3678V12.3803V12.3928V12.4053V12.4179V12.4304V12.443V12.4556V12.4682V12.4808V12.4935V12.5061V12.5188V12.5314V12.5441V12.5568V12.5695V12.5822V12.5949V12.6077V12.6204V12.6332V12.646V12.6588V12.6716V12.6844V12.6972V12.7101V12.7229V12.7358V12.7486V12.7615V12.7744V12.7873V12.8002V12.8131V12.8261V12.839V12.852V12.8649V12.8779V12.8909V12.9039V12.9169V12.9299V12.9429V12.9559V12.9689V12.982V12.995V13.0081V13.0212V13.0342V13.0473V13.0604V13.0735V13.0866V13.0997V13.1128V13.126V13.1391V13.1522V13.1654V13.1785V13.1917V13.2049V13.218V13.2312V13.2444V13.2576V13.2708V13.284V13.2972V13.3104V13.3236V13.3368V13.3501V13.3633V13.3765V13.3898V13.403V13.4163V13.4295V13.4428V13.456V13.4693V13.4826V13.4959V13.5091V13.5224V13.5357V13.549V13.5623V13.5755V13.5888V13.6021V13.6154V13.6287V13.642V13.6553V13.6686V13.6819V13.6953V13.7086V13.7219V13.7352V13.7485V13.7618V13.7751V13.7884V13.8018V13.8151V13.8284V13.8417V13.855V13.8683V13.8817V13.895V13.9083V13.9216V13.9349V13.9482V13.9615V13.9748V13.9882V14.0015V14.0148V14.0281V14.0414V14.0547V14.068V14.0813V14.0946V14.1079V14.1211V14.1344V14.1477V14.161V14.1743V14.1875V14.2008V14.2141V14.2273V14.2406V14.2539V14.2671V14.2804V14.2936V14.3068V14.3201V14.3333V14.3465V14.3597V14.373V14.3862V14.3994V14.4126V14.4258V14.4389V14.4521V14.4653V14.4785V14.4916V14.5048V14.5179V14.5311V14.5442V14.5573V14.5705V14.5836V14.5967V14.6098V14.6229V14.636V14.6491V14.6621V14.6752V14.6882V14.7013V14.7143V14.7273V14.7404V14.7534V14.7664V14.7794V14.7924V14.8053V14.8183V14.8313V14.8442V14.8571V14.8701V14.883V14.8959V14.9088V14.9217V14.9345V14.9474V14.9603V14.9731V14.9859V14.9987V15.0116V15.0243V15.0371V15.0499V15.0627V15.0754V15.0882V15.1009V15.1136V15.1263V15.139V15.1516V15.1643V15.177V15.1896V15.2022V15.2148V15.2274V15.24V15.2526V15.2651V15.2777V15.2902V15.3027V15.3152V15.3277V15.3401V15.3526V15.365V15.3774V15.3898V15.4022V15.4146V15.427V15.4393V15.4516V15.4639V15.4762V15.4885V15.5008V15.513V15.5253V15.5375V15.5497V15.5618V15.574V15.5862V15.5983V15.6104V15.6225V15.6346V15.6466V15.6586V15.6707V15.6827V15.6946V15.7066V15.7186V15.7305V15.7424V15.7543V15.7661V15.778V15.7898V15.8016V15.8134V15.8252V15.8369V15.8487V15.8604V15.8721V15.8837V15.8954V15.907V15.9186V15.9302V15.9418V15.9533V15.9648V15.9763V15.9878V15.9993V16.0107V16.0221V16.0335V16.0449V16.0562V16.0675V16.0788V16.0901V16.1014V16.1126V16.1238V16.135V16.1462V16.1573V16.1684V16.1795V16.1906V16.2016V16.2126V16.2236V16.2346V16.2455V16.2564V16.2673V16.2782V16.289V16.2999V16.3106V16.3214V16.3322V16.3429V16.3536V16.3642V16.3749V16.3855V16.396V16.4066V16.4171V16.4276V16.4381V16.4486V16.459V16.4694V16.4797V16.4901V16.5004V16.5107V16.5209V16.5312V16.5414V16.5515V16.5617V16.5718V16.5819V16.5919V16.602V16.6119V16.6219V16.6319V16.6418V16.6516V16.6615V16.6713V16.6811V16.6909V16.7006V16.7103V16.72V16.7296V16.7392V16.7488V16.7583V16.7678V16.7773V16.7868V16.7962V16.8056V16.8149V16.8242V16.8335V16.8428V16.852V16.8612V16.8704V16.8795V16.8886V16.8976V16.9067V16.9157V16.9246V16.9336V16.9424V16.9513V16.9601V16.9689V16.9777V16.9864V16.9951V17.0037V17.0124V17.021V17.0295V17.038V17.0465V17.0549V17.0633V17.0717V17.0801V17.0884V17.0966V17.1048V17.113V17.1212V17.1293V17.1374V17.1454V17.1535V17.1614V17.1694V17.1773V17.1851V17.1929V17.2007V17.2085V17.2162V17.2238V17.2315V17.2391V17.2466V17.2541V17.2616V17.2691V17.2765V17.2838V17.2911V17.2984V17.3057H15.1201V17.2984V17.2911V17.2838V17.2765V17.2691V17.2616V17.2541V17.2466V17.2391V17.2315V17.2238V17.2162V17.2085V17.2007V17.1929V17.1851V17.1773V17.1694V17.1614V17.1535V17.1454V17.1374V17.1293V17.1212V17.113V17.1048V17.0966V17.0884V17.0801V17.0717V17.0633V17.0549V17.0465V17.038V17.0295V17.021V17.0124V17.0037V16.9951V16.9864V16.9777V16.9689V16.9601V16.9513V16.9424V16.9336V16.9246V16.9157V16.9067V16.8976V16.8886V16.8795V16.8704V16.8612V16.852V16.8428V16.8335V16.8242V16.8149V16.8056V16.7962V16.7868V16.7773V16.7678V16.7583V16.7488V16.7392V16.7296V16.72V16.7103V16.7006V16.6909V16.6811V16.6713V16.6615V16.6516V16.6418V16.6319V16.6219V16.6119V16.602V16.5919V16.5819V16.5718V16.5617V16.5515V16.5414V16.5312V16.5209V16.5107V16.5004V16.4901V16.4797V16.4694V16.459V16.4486V16.4381V16.4276V16.4171V16.4066V16.396V16.3855V16.3749V16.3642V16.3536V16.3429V16.3322V16.3214V16.3106V16.2999V16.289V16.2782V16.2673V16.2564V16.2455V16.2346V16.2236V16.2126V16.2016V16.1906V16.1795V16.1684V16.1573V16.1462V16.135V16.1238V16.1126V16.1014V16.0901V16.0788V16.0675V16.0562V16.0449V16.0335V16.0221V16.0107V15.9993V15.9878V15.9763V15.9648V15.9533V15.9418V15.9302V15.9186V15.907V15.8954V15.8837V15.8721V15.8604V15.8487V15.8369V15.8252V15.8134V15.8016V15.7898V15.778V15.7661V15.7543V15.7424V15.7305V15.7186V15.7066V15.6946V15.6827V15.6707V15.6586V15.6466V15.6346V15.6225V15.6104V15.5983V15.5862V15.574V15.5618V15.5497V15.5375V15.5253V15.513V15.5008V15.4885V15.4762V15.4639V15.4516V15.4393V15.427V15.4146V15.4022V15.3898V15.3774V15.365V15.3526V15.3401V15.3277V15.3152V15.3027V15.2902V15.2777V15.2651V15.2526V15.24V15.2274V15.2148V15.2022V15.1896V15.177V15.1643V15.1516V15.139V15.1263V15.1136V15.1009V15.0882V15.0754V15.0627V15.0499V15.0371V15.0243V15.0116V14.9987V14.9859V14.9731V14.9603V14.9474V14.9345V14.9217V14.9088V14.8959V14.883V14.8701V14.8571V14.8442V14.8313V14.8183V14.8053V14.7924V14.7794V14.7664V14.7534V14.7404V14.7273V14.7143V14.7013V14.6882V14.6752V14.6621V14.6491V14.636V14.6229V14.6098V14.5967V14.5836V14.5705V14.5573V14.5442V14.5311V14.5179V14.5048V14.4916V14.4785V14.4653V14.4521V14.4389V14.4258V14.4126V14.3994V14.3862V14.373V14.3597V14.3465V14.3333V14.3201V14.3068V14.2936V14.2804V14.2671V14.2539V14.2406V14.2273V14.2141V14.2008V14.1875V14.1743V14.161V14.1477V14.1344V14.1211V14.1079V14.0946V14.0813V14.068V14.0547V14.0414V14.0281V14.0148V14.0015V13.9882V13.9748V13.9615V13.9482V13.9349V13.9216V13.9083V13.895V13.8817V13.8683V13.855V13.8417V13.8284V13.8151V13.8018V13.7884V13.7751V13.7618V13.7485V13.7352V13.7219V13.7086V13.6953V13.6819V13.6686V13.6553V13.642V13.6287V13.6154V13.6021V13.5888V13.5755V13.5623V13.549V13.5357V13.5224V13.5091V13.4959V13.4826V13.4693V13.456V13.4428V13.4295V13.4163V13.403V13.3898V13.3765V13.3633V13.3501V13.3368V13.3236V13.3104V13.2972V13.284V13.2708V13.2576V13.2444V13.2312V13.218V13.2049V13.1917V13.1785V13.1654V13.1522V13.1391V13.126V13.1128V13.0997V13.0866V13.0735V13.0604V13.0473V13.0342V13.0212V13.0081V12.995V12.982V12.9689V12.9559V12.9429V12.9299V12.9169V12.9039V12.8909V12.8779V12.8649V12.852V12.839V12.8261V12.8131V12.8002V12.7873V12.7744V12.7615V12.7486V12.7358V12.7229V12.7101V12.6972V12.6844V12.6716V12.6588V12.646V12.6332V12.6204V12.6077V12.5949V12.5822V12.5695V12.5568V12.5441V12.5314V12.5188V12.5061V12.4935V12.4808V12.4682V12.4556V12.443V12.4304V12.4179V12.4053V12.3928V12.3803V12.3678V12.3553V12.3428V12.3304V12.3179V12.3055V12.2931V12.2807V12.2683V12.2559V12.2436V12.2312V12.2189V12.2066V12.1943V12.1821V12.1698V12.1576V12.1453V12.1331V12.1209V12.1088V12.0966V12.0845V12.0724V12.0603V12.0482V12.0361V12.0241V12.012V12V11.988V11.9761V11.9641V11.9522V11.9403V11.9284V11.9165V11.9046V11.8928V11.881V11.8692V11.8574V11.8456V11.8339V11.8222V11.8105V11.7988V11.7871V11.7755V11.7639V11.7523V11.7407V11.7291V11.7176V11.7061V11.6946V11.6831V11.6717V11.6603V11.6489V11.6375V11.6261V11.6148V11.6035V11.5922V11.5809V11.5697V11.5585V11.5473V11.5361V11.5249V11.5138V11.5027V11.4916V11.4806V11.4695V11.4585V11.4476V11.4366V11.4257V11.4148V11.4039V11.393V11.3822V11.3714V11.3606V11.3499V11.3391V11.3284V11.3178V11.3071V11.2965C15.1201 10.6153 14.7798 9.9802 14.2121 9.60171ZM5.12012 7.80566V17.3057H3.62012V7.80566H5.12012Z" fill="white"/>
</svg>
