<svg width="20" height="21" viewBox="0 0 20 21" fill="none" xmlns="http://www.w3.org/2000/svg">
<path d="M13.3654 7.49671H13.9772M6.3292 4.4375H13.6713C15.023 4.4375 16.1187 5.53322 16.1187 6.88487V14.227C16.1187 15.5786 15.023 16.6743 13.6713 16.6743H6.3292C4.97756 16.6743 3.88184 15.5786 3.88184 14.227V6.88487C3.88184 5.53322 4.97756 4.4375 6.3292 4.4375ZM10.0003 13.0033C8.64861 13.0033 7.55289 11.9076 7.55289 10.5559C7.55289 9.20428 8.64861 8.10855 10.0003 8.10855C11.3519 8.10855 12.4476 9.20428 12.4476 10.5559C12.4476 11.9076 11.3519 13.0033 10.0003 13.0033Z" stroke="white" stroke-width="1.5"/>
</svg>
