<svg width="44" height="44" viewBox="0 0 44 44" fill="none" xmlns="http://www.w3.org/2000/svg">
<path d="M28.25 34H25.5464C25.5899 33.9427 25.6231 33.8844 25.645 33.825L25.6626 33.79V29.325C25.6625 28.7633 24.6877 28.2834 23.2087 28.0076C22.7146 27.8989 22.3211 27.8387 22.2549 27.8289C22.4247 27.8052 25.4723 27.3637 25.4724 26.1851C25.4724 25.1001 21.95 24.825 21.95 24.825C21.95 24.825 25.4249 24.25 25.425 23.2476C25.425 22.4546 21.7436 21.8655 21.7251 21.8625C21.742 21.8602 25.3376 21.3598 25.3376 20.2749C25.3374 19.3505 21.9913 18.858 21.9875 18.8574C21.9981 18.8563 25.24 18.5155 25.24 17.3374C25.2397 16.43 21.8125 15.8501 21.8125 15.8501C21.8125 15.8501 25.2099 15.4325 25.21 14.395C25.21 13.045 20.72 12.7324 20.72 12.7324L20.02 13.6001C20.02 13.6001 23.0925 13.88 23.0925 14.3625C23.0922 14.7985 16.9707 15.2361 15.75 15.3203V10H28.25V34Z" fill="#0F0D0D"/>
<path d="M15.75 25.5085C17.0875 25.5935 22.9924 25.6598 22.9924 26.2151C22.9919 26.8003 16.8687 27.3218 15.75 27.4045V25.5085Z" fill="#0F0D0D"/>
<path d="M15.75 22.417C17.2108 22.5441 22.9924 22.7955 22.9924 23.3425C22.9923 23.9161 16.9193 24.3831 15.75 24.4648V22.417Z" fill="#0F0D0D"/>
<path d="M15.75 19.5078C17.3312 19.7162 23.0521 19.8017 23.0525 20.335C23.0525 20.8848 17.0612 21.2775 15.75 21.3577V19.5078Z" fill="#0F0D0D"/>
<path d="M15.75 16.3762C17.1515 16.5042 22.9924 16.7793 22.9924 17.3325C22.9924 17.8997 17.2676 18.3038 15.75 18.4009V16.3762Z" fill="#0F0D0D"/>
</svg>